<svg xmlns="http://www.w3.org/2000/svg" viewBox="0 0 240 240" width="240" height="240" role="img" aria-label="Cig">
  <defs>
    <filter id="back" x="-45%" y="-45%" width="190%" height="190%">
      <feMorphology in="SourceAlpha" operator="dilate" radius="12" result="f"></feMorphology>
      <feTurbulence type="fractalNoise" baseFrequency="0.016" numOctaves="2" seed="97" result="n"></feTurbulence>
      <feDisplacementMap in="f" in2="n" scale="7" xChannelSelector="R" yChannelSelector="G" result="rr"></feDisplacementMap>
      <feFlood flood-color="#ef5a44" result="c"></feFlood>
      <feComposite in="c" in2="rr" operator="in"></feComposite>
    </filter>
    <filter id="ln" x="-30%" y="-30%" width="160%" height="160%">
      <feTurbulence type="fractalNoise" baseFrequency="0.02" numOctaves="2" seed="98" result="n"></feTurbulence>
      <feDisplacementMap in="SourceGraphic" in2="n" scale="4.2" xChannelSelector="R" yChannelSelector="G"></feDisplacementMap>
    </filter>
  </defs>
  <g filter="url(#back)" transform="translate(6 7) rotate(-3 120 120)">
    <path d="M76 176 q-24 -16 -16 -44 q7 -25 36 -27 q26 -2 38 16 q11 17 0 34 q-16 25 -58 21 Z"></path>
    <path d="M120 120 L156 84 L168 96 L132 132 Z"></path>
    <circle cx="158" cy="84" r="13"></circle>
  </g>
  <g filter="url(#ln)" transform="rotate(-3 120 120)" fill="none" stroke="#15130e" stroke-width="5" stroke-linecap="round" stroke-linejoin="round">
    <path d="M76 176 q-24 -16 -16 -44 q7 -25 36 -27 q26 -2 38 16 q11 17 0 34 q-16 25 -58 21 Z"></path>
    <path d="M126 118 l28 -30" stroke-width="8"></path>
    <path d="M150 92 a11 11 0 1 1 8 -9 a10 10 0 1 1 -8 9 Z"></path>
    <path d="M84 150 q14 -6 24 -20" stroke-width="2.8"></path>
    <path d="M88 164 q16 -4 30 -18" stroke-width="2.4"></path>
  </g>
</svg>