<svg xmlns="http://www.w3.org/2000/svg" viewBox="0 0 240 240" width="240" height="240" role="img" aria-label="Llaeth">
  <defs>
    <filter id="back" x="-45%" y="-45%" width="190%" height="190%">
      <feMorphology in="SourceAlpha" operator="dilate" radius="12" result="f"></feMorphology>
      <feTurbulence type="fractalNoise" baseFrequency="0.016" numOctaves="2" seed="152" result="n"></feTurbulence>
      <feDisplacementMap in="f" in2="n" scale="7" xChannelSelector="R" yChannelSelector="G" result="rr"></feDisplacementMap>
      <feFlood flood-color="#3f86ee" result="c"></feFlood>
      <feComposite in="c" in2="rr" operator="in"></feComposite>
    </filter>
    <filter id="ln" x="-30%" y="-30%" width="160%" height="160%">
      <feTurbulence type="fractalNoise" baseFrequency="0.02" numOctaves="2" seed="153" result="n"></feTurbulence>
      <feDisplacementMap in="SourceGraphic" in2="n" scale="4.2" xChannelSelector="R" yChannelSelector="G"></feDisplacementMap>
    </filter>
  </defs>
  <g filter="url(#back)" transform="translate(6 7) rotate(4 120 120)">
    <path d="M106 72 l28 0 l0 13 q14 10 14 30 l0 63 q0 8 -8 8 l-40 0 q-8 0 -8 -8 l0 -63 q0 -20 14 -30 Z"></path>
    <path d="M104 58 l32 0 l0 14 l-32 0 Z"></path>
  </g>
  <g filter="url(#ln)" transform="rotate(4 120 120)" fill="none" stroke="#15130e" stroke-width="5" stroke-linecap="round" stroke-linejoin="round">
      <path d="M106 72 l28 0 l0 13 q14 10 14 30 l0 63 q0 8 -8 8 l-40 0 q-8 0 -8 -8 l0 -63 q0 -20 14 -30 Z"></path>
      <path d="M98 132 q22 9 44 0"></path>
      <path d="M104 62 q0 -4 4 -4 l24 0 q4 0 4 4 l0 10 l-32 0 Z"></path>
      <path d="M108 150 q14 5 28 0" stroke-width="2.6"></path>
  </g>
</svg>