<svg xmlns="http://www.w3.org/2000/svg" viewBox="0 0 240 240" width="240" height="240" role="img" aria-label="Llysiau">
  <defs>
    <filter id="back" x="-45%" y="-45%" width="190%" height="190%">
      <feMorphology in="SourceAlpha" operator="dilate" radius="12" result="f"></feMorphology>
      <feTurbulence type="fractalNoise" baseFrequency="0.016" numOctaves="2" seed="119" result="n"></feTurbulence>
      <feDisplacementMap in="f" in2="n" scale="7" xChannelSelector="R" yChannelSelector="G" result="rr"></feDisplacementMap>
      <feFlood flood-color="#46c07a" result="c"></feFlood>
      <feComposite in="c" in2="rr" operator="in"></feComposite>
    </filter>
    <filter id="ln" x="-30%" y="-30%" width="160%" height="160%">
      <feTurbulence type="fractalNoise" baseFrequency="0.02" numOctaves="2" seed="120" result="n"></feTurbulence>
      <feDisplacementMap in="SourceGraphic" in2="n" scale="4.2" xChannelSelector="R" yChannelSelector="G"></feDisplacementMap>
    </filter>
  </defs>
  <g filter="url(#back)" transform="translate(6 7) rotate(-4 120 120)">
    <path d="M104 100 L136 100 L123 178 q-3 9 -6 0 Z"></path>
    <path d="M100 102 q-12 -28 2 -38 q10 22 18 -2 q8 24 16 0 q14 10 2 40 Z"></path>
  </g>
  <g filter="url(#ln)" transform="rotate(-4 120 120)" fill="none" stroke="#15130e" stroke-width="5" stroke-linecap="round" stroke-linejoin="round">
      <path d="M108 102 q12 -6 24 0 l-9 74 q-3 9 -6 0 Z"></path>
      <path d="M112 118 l16 -3 M114 136 l13 -3 M117 152 l9 -2" stroke-width="3"></path>
      <path d="M110 102 q-11 -22 -3 -31 M120 100 q0 -27 0 -33 M130 102 q11 -20 5 -31"></path>
      <path d="M102 92 q-7 -2 -9 -9 M138 92 q7 -2 9 -9" stroke-width="2.4"></path>
  </g>
</svg>