<svg xmlns="http://www.w3.org/2000/svg" viewBox="0 0 240 240" width="240" height="240" role="img" aria-label="Pasta">
  <defs>
    <filter id="back" x="-45%" y="-45%" width="190%" height="190%">
      <feMorphology in="SourceAlpha" operator="dilate" radius="12" result="f"></feMorphology>
      <feTurbulence type="fractalNoise" baseFrequency="0.016" numOctaves="2" seed="108" result="n"></feTurbulence>
      <feDisplacementMap in="f" in2="n" scale="7" xChannelSelector="R" yChannelSelector="G" result="rr"></feDisplacementMap>
      <feFlood flood-color="#3f86ee" result="c"></feFlood>
      <feComposite in="c" in2="rr" operator="in"></feComposite>
    </filter>
    <filter id="ln" x="-30%" y="-30%" width="160%" height="160%">
      <feTurbulence type="fractalNoise" baseFrequency="0.02" numOctaves="2" seed="109" result="n"></feTurbulence>
      <feDisplacementMap in="SourceGraphic" in2="n" scale="4.2" xChannelSelector="R" yChannelSelector="G"></feDisplacementMap>
    </filter>
  </defs>
  <g filter="url(#back)" transform="translate(6 7) rotate(3 120 120)">
    <path d="M72 134 q48 30 96 0 q-6 36 -48 36 q-42 0 -48 -36 Z"></path>
    <path d="M82 132 q38 -34 76 0 Z"></path>
  </g>
  <g filter="url(#ln)" transform="rotate(3 120 120)" fill="none" stroke="#15130e" stroke-width="5" stroke-linecap="round" stroke-linejoin="round">
    <path d="M72 134 q48 30 96 0 q-6 36 -48 36 q-42 0 -48 -36 Z"></path>
    <path d="M84 132 q-6 -32 22 -38"></path>
    <path d="M106 130 q-2 -38 26 -34"></path>
    <path d="M130 132 q6 -32 32 -24"></path>
    <path d="M96 120 q-4 -10 2 -18 M150 118 q4 -10 12 -12" stroke-width="2.6"></path>
  </g>
</svg>