<svg xmlns="http://www.w3.org/2000/svg" viewBox="0 0 240 240" width="240" height="240" role="img" aria-label="Pys">
  <defs>
    <filter id="back" x="-45%" y="-45%" width="190%" height="190%">
      <feMorphology in="SourceAlpha" operator="dilate" radius="12" result="f"></feMorphology>
      <feTurbulence type="fractalNoise" baseFrequency="0.016" numOctaves="2" seed="86" result="n"></feTurbulence>
      <feDisplacementMap in="f" in2="n" scale="7" xChannelSelector="R" yChannelSelector="G" result="rr"></feDisplacementMap>
      <feFlood flood-color="#46c07a" result="c"></feFlood>
      <feComposite in="c" in2="rr" operator="in"></feComposite>
    </filter>
    <filter id="ln" x="-30%" y="-30%" width="160%" height="160%">
      <feTurbulence type="fractalNoise" baseFrequency="0.02" numOctaves="2" seed="87" result="n"></feTurbulence>
      <feDisplacementMap in="SourceGraphic" in2="n" scale="4.2" xChannelSelector="R" yChannelSelector="G"></feDisplacementMap>
    </filter>
  </defs>
  <g filter="url(#back)" transform="translate(6 7) rotate(4 120 120)">
    <path d="M70 140 C 92 100, 150 100, 172 136 C 150 153, 92 153, 70 140 Z"></path>
  </g>
  <g filter="url(#ln)" transform="rotate(4 120 120)" fill="none" stroke="#15130e" stroke-width="5" stroke-linecap="round" stroke-linejoin="round">
      <path d="M70 140 C 92 100, 150 100, 172 136 C 150 153, 92 153, 70 140 Z"></path>
      <circle cx="96" cy="131" r="11"></circle>
      <circle cx="121" cy="127" r="12"></circle>
      <circle cx="147" cy="131" r="11"></circle>
      <path d="M92 126 q3 -4 7 -4 M117 122 q3 -4 8 -4" stroke-width="2.2"></path>
      <path d="M168 124 q12 -10 8 -22" stroke-width="2.6"></path>
  </g>
</svg>