<svg xmlns="http://www.w3.org/2000/svg" viewBox="0 0 240 240" width="240" height="240">
  <defs>
    <filter id="back" x="-45%" y="-45%" width="190%" height="190%">
      <feMorphology in="SourceAlpha" operator="dilate" radius="12" result="f"></feMorphology>
      <feTurbulence type="fractalNoise" baseFrequency="0.016" numOctaves="2" seed="61" result="n"></feTurbulence>
      <feDisplacementMap in="f" in2="n" scale="7" xChannelSelector="R" yChannelSelector="G" result="rr"></feDisplacementMap>
      <feFlood flood-color="#ef5a44" result="c"></feFlood>
      <feComposite in="c" in2="rr" operator="in"></feComposite>
    </filter>
    <filter id="ln" x="-30%" y="-30%" width="160%" height="160%">
      <feTurbulence type="fractalNoise" baseFrequency="0.02" numOctaves="2" seed="62" result="n"></feTurbulence>
      <feDisplacementMap in="SourceGraphic" in2="n" scale="4.2" xChannelSelector="R" yChannelSelector="G"></feDisplacementMap>
    </filter>
  </defs>
  <g filter="url(#back)" transform="translate(6 7) rotate(4 120 120)">
    <path d="M79 88 q-2 -26 15 -26 q17 0 15 26 q-7 -9 -15 -3 q-8 -6 -15 3 Z"></path><path d="M105 78 q-2 -26 15 -26 q17 0 15 26 q-7 -9 -15 -3 q-8 -6 -15 3 Z"></path><path d="M131 90 q-2 -26 15 -26 q17 0 15 26 q-7 -9 -15 -3 q-8 -6 -15 3 Z"></path><path d="M108 116 q4 40 10 72 l10 0 q-4 -34 4 -70 Z"></path><path d="M114 150 q-30 0 -42 -20 q28 -2 44 12 Z"></path><path d="M126 158 q30 0 42 -20 q-28 -2 -44 12 Z"></path>
  </g>
  <g filter="url(#ln)" transform="rotate(4 120 120)" fill="none" stroke="#15130e" stroke-width="5" stroke-linecap="round" stroke-linejoin="round">
    <path d="M79 88 q-2 -26 15 -26 q17 0 15 26 q-7 -9 -15 -3 q-8 -6 -15 3 Z"></path><path d="M105 78 q-2 -26 15 -26 q17 0 15 26 q-7 -9 -15 -3 q-8 -6 -15 3 Z"></path><path d="M131 90 q-2 -26 15 -26 q17 0 15 26 q-7 -9 -15 -3 q-8 -6 -15 3 Z"></path><path d="M94 106 q10 40 24 78 M120 100 v82 M146 108 q-10 40 -24 76"></path><path d="M114 150 q-30 0 -42 -20 q28 -2 44 12 Z"></path><path d="M126 158 q30 0 42 -20 q-28 -2 -44 12 Z"></path>
  </g>
</svg>