<svg xmlns="http://www.w3.org/2000/svg" viewBox="0 0 240 240" width="240" height="240" role="img" aria-label="Bwrdd">
  <defs>
    <filter id="back" x="-45%" y="-45%" width="190%" height="190%">
      <feMorphology in="SourceAlpha" operator="dilate" radius="12" result="f"></feMorphology>
      <feTurbulence type="fractalNoise" baseFrequency="0.016" numOctaves="2" seed="64" result="n"></feTurbulence>
      <feDisplacementMap in="f" in2="n" scale="7" xChannelSelector="R" yChannelSelector="G" result="rr"></feDisplacementMap>
      <feFlood flood-color="#ef5a44" result="c"></feFlood>
      <feComposite in="c" in2="rr" operator="in"></feComposite>
    </filter>
    <filter id="ln" x="-30%" y="-30%" width="160%" height="160%">
      <feTurbulence type="fractalNoise" baseFrequency="0.02" numOctaves="2" seed="65" result="n"></feTurbulence>
      <feDisplacementMap in="SourceGraphic" in2="n" scale="4.2" xChannelSelector="R" yChannelSelector="G"></feDisplacementMap>
    </filter>
  </defs>
  <g filter="url(#back)" transform="translate(6 6) rotate(3 120 120)">
    <path d="M58 116 L182 116 L182 130 L58 130 Z"></path>
    <path d="M70 130 L79 130 L78 182 L69 182 Z"></path>
    <path d="M161 130 L170 130 L171 182 L162 182 Z"></path>
    <ellipse cx="108" cy="106" rx="25" ry="9"></ellipse>
    <path d="M146 98 L166 98 L163 116 L149 116 Z"></path>
  </g>
  <g filter="url(#ln)" transform="rotate(3 120 120)" fill="none" stroke="#15130e" stroke-width="5" stroke-linecap="round" stroke-linejoin="round">
      <path d="M58 122 q0 -5 5 -5 l114 0 q5 0 5 5 l0 6 q0 5 -5 5 l-114 0 q-5 0 -5 -5 Z"></path>
      <path d="M72 133 l-1 48 M168 133 l1 48"></path>
      <ellipse cx="108" cy="108" rx="24" ry="8"></ellipse>
      <path d="M146 112 l0 -10 l16 0 l0 10 q0 4 -8 4 q-8 0 -8 -4 Z"></path>
      <path d="M162 104 q9 0 9 7 q0 6 -9 6" stroke-width="3.3"></path>
      <path d="M150 96 q-3 -7 3 -11" stroke-width="2.6"></path>
  </g>
</svg>