<svg xmlns="http://www.w3.org/2000/svg" viewBox="0 0 240 240" width="240" height="240">
  <defs>
    <filter id="back" x="-45%" y="-45%" width="190%" height="190%">
      <feMorphology in="SourceAlpha" operator="dilate" radius="12" result="f"></feMorphology>
      <feTurbulence type="fractalNoise" baseFrequency="0.016" numOctaves="2" seed="91" result="n"></feTurbulence>
      <feDisplacementMap in="f" in2="n" scale="7" xChannelSelector="R" yChannelSelector="G" result="rr"></feDisplacementMap>
      <feFlood flood-color="#46c07a" result="c"></feFlood>
      <feComposite in="c" in2="rr" operator="in"></feComposite>
    </filter>
    <filter id="ln" x="-30%" y="-30%" width="160%" height="160%">
      <feTurbulence type="fractalNoise" baseFrequency="0.02" numOctaves="2" seed="92" result="n"></feTurbulence>
      <feDisplacementMap in="SourceGraphic" in2="n" scale="4.2" xChannelSelector="R" yChannelSelector="G"></feDisplacementMap>
    </filter>
  </defs>
  <g filter="url(#back)" transform="translate(6 7) rotate(3 120 120)">
    <path d="M82 78 l-8 -34 30 20 q16 -6 32 0 l30 -20 -8 34 q14 16 14 36 q0 38 -52 38 q-52 0 -52 -38 q0 -20 14 -36 Z"></path><path d="M84 150 q-4 40 36 40 q40 0 36 -40 Z"></path><path d="M154 168 q34 2 28 -34 q-2 -10 -12 -6 q8 22 -16 30 Z"></path>
  </g>
  <g filter="url(#ln)" transform="rotate(3 120 120)" fill="none" stroke="#15130e" stroke-width="5" stroke-linecap="round" stroke-linejoin="round">
    <path d="M82 78 l-8 -34 30 20 q16 -6 32 0 l30 -20 -8 34 q14 16 14 36 q0 38 -52 38 q-52 0 -52 -38 q0 -20 14 -36 Z"></path><path d="M98 96 q6 8 14 0"></path><path d="M128 96 q6 8 14 0"></path><path d="M116 110 l10 0 -5 7 Z"></path><path d="M121 117 q-6 7 -13 5 M121 117 q6 7 13 5"></path><path d="M96 108 q-20 0 -30 -8 M144 108 q20 0 30 -8" stroke-width="4"></path><path d="M86 150 q-6 38 34 38 q40 0 34 -38"></path><path d="M154 168 q34 2 28 -34"></path>
  </g>
</svg>