<svg xmlns="http://www.w3.org/2000/svg" viewBox="0 0 240 240" width="240" height="240">
  <defs>
    <filter id="back" x="-45%" y="-45%" width="190%" height="190%">
      <feMorphology in="SourceAlpha" operator="dilate" radius="12" result="f"></feMorphology>
      <feTurbulence type="fractalNoise" baseFrequency="0.016" numOctaves="2" seed="131" result="n"></feTurbulence>
      <feDisplacementMap in="f" in2="n" scale="7" xChannelSelector="R" yChannelSelector="G" result="rr"></feDisplacementMap>
      <feFlood flood-color="#46c07a" result="c"></feFlood>
      <feComposite in="c" in2="rr" operator="in"></feComposite>
    </filter>
    <filter id="ln" x="-30%" y="-30%" width="160%" height="160%">
      <feTurbulence type="fractalNoise" baseFrequency="0.02" numOctaves="2" seed="132" result="n"></feTurbulence>
      <feDisplacementMap in="SourceGraphic" in2="n" scale="4.2" xChannelSelector="R" yChannelSelector="G"></feDisplacementMap>
    </filter>
  </defs>
  <g filter="url(#back)" transform="translate(6 7) rotate(3 120 120)">
    <ellipse cx="120" cy="126" rx="40" ry="50"></ellipse><ellipse cx="120" cy="80" rx="22" ry="16"></ellipse>
  </g>
  <g filter="url(#ln)" transform="rotate(3 120 120)" fill="none" stroke="#15130e" stroke-width="5" stroke-linecap="round" stroke-linejoin="round">
    <ellipse cx="120" cy="126" rx="40" ry="50"></ellipse><path d="M120 92 v92"></path><ellipse cx="120" cy="80" rx="22" ry="16"></ellipse><path d="M108 70 q-8 -16 -20 -18 M132 70 q8 -16 20 -18"></path><path d="M82 112 l-22 -12 M84 132 l-26 2 M84 152 l-22 14 M158 112 l22 -12 M156 132 l26 2 M156 152 l22 14" stroke-width="4"></path><circle cx="106" cy="118" r="5" fill="#15130e"></circle><circle cx="134" cy="138" r="5" fill="#15130e"></circle>
  </g>
</svg>