<svg xmlns="http://www.w3.org/2000/svg" viewBox="0 0 240 240" width="240" height="240" role="img" aria-label="Cwpan">
  <defs>
    <filter id="back" x="-45%" y="-45%" width="190%" height="190%">
      <feMorphology in="SourceAlpha" operator="dilate" radius="12" result="f"></feMorphology>
      <feTurbulence type="fractalNoise" baseFrequency="0.016" numOctaves="2" seed="23" result="n"></feTurbulence>
      <feDisplacementMap in="f" in2="n" scale="7" xChannelSelector="R" yChannelSelector="G" result="rr"></feDisplacementMap>
      <feFlood flood-color="#ef5a44" result="c"></feFlood>
      <feComposite in="c" in2="rr" operator="in"></feComposite>
    </filter>
    <filter id="ln" x="-30%" y="-30%" width="160%" height="160%">
      <feTurbulence type="fractalNoise" baseFrequency="0.02" numOctaves="2" seed="24" result="n"></feTurbulence>
      <feDisplacementMap in="SourceGraphic" in2="n" scale="4.2" xChannelSelector="R" yChannelSelector="G"></feDisplacementMap>
    </filter>
  </defs>
  <g filter="url(#back)" transform="translate(6 7) rotate(5 120 120)">
    <path d="M86 92 q0 -6 6 -6 l50 0 q6 0 6 6 l-5 70 q-1 12 -14 12 l-24 0 q-13 0 -14 -12 Z"></path>
    <path d="M148 102 q32 0 32 28 q0 26 -30 26 l0 -14 q16 0 16 -12 q0 -14 -18 -14 Z"></path>
  </g>
  <g filter="url(#ln)" transform="rotate(5 120 120)" fill="none" stroke="#15130e" stroke-width="5" stroke-linecap="round" stroke-linejoin="round">
      <path d="M86 92 q0 -6 6 -6 l50 0 q6 0 6 6 l-5 70 q-1 12 -14 12 l-24 0 q-13 0 -14 -12 Z"></path>
      <ellipse cx="119" cy="90" rx="33" ry="8"></ellipse>
      <path d="M144 104 q28 0 28 24 q0 22 -26 22"></path>
      <path d="M102 72 q-5 -11 4 -18 M122 72 q-5 -11 4 -18 M142 74 q-4 -9 3 -15" stroke-width="3.3"></path>
      <path d="M97 110 q-2 18 4 50" stroke-width="2.6"></path>
  </g>
</svg>