<svg xmlns="http://www.w3.org/2000/svg" viewBox="0 0 240 240" width="240" height="240">
  <defs>
    <filter id="back" x="-45%" y="-45%" width="190%" height="190%">
      <feMorphology in="SourceAlpha" operator="dilate" radius="12" result="f"></feMorphology>
      <feTurbulence type="fractalNoise" baseFrequency="0.016" numOctaves="2" seed="171" result="n"></feTurbulence>
      <feDisplacementMap in="f" in2="n" scale="7" xChannelSelector="R" yChannelSelector="G" result="rr"></feDisplacementMap>
      <feFlood flood-color="#46c07a" result="c"></feFlood>
      <feComposite in="c" in2="rr" operator="in"></feComposite>
    </filter>
    <filter id="ln" x="-30%" y="-30%" width="160%" height="160%">
      <feTurbulence type="fractalNoise" baseFrequency="0.02" numOctaves="2" seed="172" result="n"></feTurbulence>
      <feDisplacementMap in="SourceGraphic" in2="n" scale="4.2" xChannelSelector="R" yChannelSelector="G"></feDisplacementMap>
    </filter>
  </defs>
  <g filter="url(#back)" transform="translate(6 7) rotate(3 120 120)">
    <path d="M58 172 q12 -48 62 -48 q50 0 62 48 Z"></path>
  </g>
  <g filter="url(#ln)" transform="rotate(3 120 120)" fill="none" stroke="#15130e" stroke-width="5" stroke-linecap="round" stroke-linejoin="round">
    <path d="M58 172 q12 -48 62 -48 q50 0 62 48 Z"></path><path d="M120 124 v-20"></path><path d="M120 112 q-14 -2 -18 -14 q14 -2 18 8 M120 110 q14 -2 18 -14 q-14 -2 -18 8" stroke-width="4"></path><circle cx="92" cy="152" r="3.6" fill="#15130e"></circle><circle cx="120" cy="160" r="3.6" fill="#15130e"></circle><circle cx="150" cy="150" r="3.6" fill="#15130e"></circle>
  </g>
</svg>