<svg xmlns="http://www.w3.org/2000/svg" viewBox="0 0 240 240" width="240" height="240">
  <defs>
    <filter id="back" x="-45%" y="-45%" width="190%" height="190%">
      <feMorphology in="SourceAlpha" operator="dilate" radius="12" result="f"></feMorphology>
      <feTurbulence type="fractalNoise" baseFrequency="0.016" numOctaves="2" seed="311" result="n"></feTurbulence>
      <feDisplacementMap in="f" in2="n" scale="7" xChannelSelector="R" yChannelSelector="G" result="rr"></feDisplacementMap>
      <feFlood flood-color="#3f86ee" result="c"></feFlood>
      <feComposite in="c" in2="rr" operator="in"></feComposite>
    </filter>
    <filter id="ln" x="-30%" y="-30%" width="160%" height="160%">
      <feTurbulence type="fractalNoise" baseFrequency="0.02" numOctaves="2" seed="711" result="n"></feTurbulence>
      <feDisplacementMap in="SourceGraphic" in2="n" scale="4.2" xChannelSelector="R" yChannelSelector="G"></feDisplacementMap>
    </filter>
  </defs>
  <g filter="url(#back)" transform="translate(6 7) rotate(4 120 120)">
    <rect x="92" y="120" width="56" height="56" rx="20"></rect><rect x="100" y="62" width="18" height="62" rx="9"></rect><path d="M148 130 q16 -6 18 8 q2 12 -16 12 Z"></path>
  </g>
  <g filter="url(#ln)" transform="rotate(4 120 120)" fill="none" stroke="#15130e" stroke-width="5" stroke-linecap="round" stroke-linejoin="round">
    <rect x="92" y="120" width="56" height="56" rx="20"></rect><rect x="100" y="62" width="18" height="62" rx="9"></rect><path d="M148 130 q16 -6 18 8 q2 12 -16 12"></path><path d="M120 150 q14 2 22 0 M120 162 q12 2 20 0" stroke-width="3.4"></path>
  </g>
</svg>