<svg xmlns="http://www.w3.org/2000/svg" viewBox="0 0 240 240" width="240" height="240" role="img" aria-label="Dŵr">
  <defs>
    <filter id="back" x="-45%" y="-45%" width="190%" height="190%">
      <feMorphology in="SourceAlpha" operator="dilate" radius="12" result="f"></feMorphology>
      <feTurbulence type="fractalNoise" baseFrequency="0.016" numOctaves="2" seed="163" result="n"></feTurbulence>
      <feDisplacementMap in="f" in2="n" scale="7" xChannelSelector="R" yChannelSelector="G" result="rr"></feDisplacementMap>
      <feFlood flood-color="#3f86ee" result="c"></feFlood>
      <feComposite in="c" in2="rr" operator="in"></feComposite>
    </filter>
    <filter id="ln" x="-30%" y="-30%" width="160%" height="160%">
      <feTurbulence type="fractalNoise" baseFrequency="0.02" numOctaves="2" seed="164" result="n"></feTurbulence>
      <feDisplacementMap in="SourceGraphic" in2="n" scale="4.2" xChannelSelector="R" yChannelSelector="G"></feDisplacementMap>
    </filter>
  </defs>
  <g filter="url(#back)" transform="translate(6 7) rotate(-4 120 120)">
    <path d="M92 84 l56 0 l-8 88 q-1 8 -20 8 q-19 0 -20 -8 Z"></path>
  </g>
  <g filter="url(#ln)" transform="rotate(-4 120 120)" fill="none" stroke="#15130e" stroke-width="5" stroke-linecap="round" stroke-linejoin="round">
      <path d="M92 84 l56 0 l-8 88 q-1 8 -20 8 q-19 0 -20 -8 Z"></path>
      <path d="M96 120 q11 8 22 0 q11 -8 22 0"></path>
      <circle cx="110" cy="142" r="3"></circle>
      <circle cx="128" cy="154" r="2.4"></circle>
      <path d="M101 96 q-1 8 1 16" stroke-width="2.4"></path>
      <path d="M150 70 l0 12 M144 76 l12 0" stroke-width="2.8"></path>
  </g>
</svg>