<svg xmlns="http://www.w3.org/2000/svg" viewBox="0 0 240 240" width="240" height="240">
  <defs>
    <filter id="back" x="-45%" y="-45%" width="190%" height="190%">
      <feMorphology in="SourceAlpha" operator="dilate" radius="12" result="f"></feMorphology>
      <feTurbulence type="fractalNoise" baseFrequency="0.016" numOctaves="2" seed="221" result="n"></feTurbulence>
      <feDisplacementMap in="f" in2="n" scale="7" xChannelSelector="R" yChannelSelector="G" result="rr"></feDisplacementMap>
      <feFlood flood-color="#3f86ee" result="c"></feFlood>
      <feComposite in="c" in2="rr" operator="in"></feComposite>
    </filter>
    <filter id="ln" x="-30%" y="-30%" width="160%" height="160%">
      <feTurbulence type="fractalNoise" baseFrequency="0.02" numOctaves="2" seed="222" result="n"></feTurbulence>
      <feDisplacementMap in="SourceGraphic" in2="n" scale="4.2" xChannelSelector="R" yChannelSelector="G"></feDisplacementMap>
    </filter>
  </defs>
  <g filter="url(#back)" transform="translate(6 7) rotate(-4 120 120)">
    <path d="M80 96 q-22 0 -22 20 q0 18 22 18 h58 q24 0 24 -20 q0 -18 -22 -18 q-2 -22 -28 -22 q-22 0 -26 22 Z"></path>
  </g>
  <g filter="url(#ln)" transform="rotate(-4 120 120)" fill="none" stroke="#15130e" stroke-width="5" stroke-linecap="round" stroke-linejoin="round">
    <path d="M80 96 q-22 0 -22 20 q0 18 22 18 h58 q24 0 24 -20 q0 -18 -22 -18 q-2 -22 -28 -22 q-22 0 -26 22 Z"></path><path d="M90 150 v22 M81 161 h18 M84 154 l12 14 M96 154 l-12 14" stroke-width="3.4"></path><path d="M120 166 v24 M110 178 h20 M113 170 l14 16 M127 170 l-14 16" stroke-width="3.4"></path><path d="M150 150 v22 M141 161 h18 M144 154 l12 14 M156 154 l-12 14" stroke-width="3.4"></path>
  </g>
</svg>