<svg xmlns="http://www.w3.org/2000/svg" viewBox="0 0 240 240" width="240" height="240">
  <defs>
    <filter id="back" x="-45%" y="-45%" width="190%" height="190%">
      <feMorphology in="SourceAlpha" operator="dilate" radius="12" result="f"></feMorphology>
      <feTurbulence type="fractalNoise" baseFrequency="0.016" numOctaves="2" seed="301" result="n"></feTurbulence>
      <feDisplacementMap in="f" in2="n" scale="7" xChannelSelector="R" yChannelSelector="G" result="rr"></feDisplacementMap>
      <feFlood flood-color="#3f86ee" result="c"></feFlood>
      <feComposite in="c" in2="rr" operator="in"></feComposite>
    </filter>
    <filter id="ln" x="-30%" y="-30%" width="160%" height="160%">
      <feTurbulence type="fractalNoise" baseFrequency="0.02" numOctaves="2" seed="701" result="n"></feTurbulence>
      <feDisplacementMap in="SourceGraphic" in2="n" scale="4.2" xChannelSelector="R" yChannelSelector="G"></feDisplacementMap>
    </filter>
  </defs>
  <g filter="url(#back)" transform="translate(6 7) rotate(4 120 120)">
    <circle cx="120" cy="64" r="20"></circle><path d="M120 84 l-26 70 h52 Z"></path><path d="M120 100 l-26 -14 M120 100 l26 -14 M104 154 v22 M136 154 v22" fill="none" stroke="#000" stroke-width="15" stroke-linecap="round"></path>
  </g>
  <g filter="url(#ln)" transform="rotate(4 120 120)" fill="none" stroke="#15130e" stroke-width="5" stroke-linecap="round" stroke-linejoin="round">
    <circle cx="120" cy="64" r="20"></circle><circle cx="113" cy="62" r="2.6" fill="#15130e"></circle><circle cx="127" cy="62" r="2.6" fill="#15130e"></circle><path d="M112 72 q8 6 16 0"></path><path d="M120 84 l-26 70 h52 Z"></path><path d="M120 100 l-26 -14 M120 100 l26 -14"></path><path d="M104 154 v22 M136 154 v22"></path>
  </g>
</svg>