<svg xmlns="http://www.w3.org/2000/svg" viewBox="0 0 240 240" width="240" height="240">
  <defs>
    <filter id="back" x="-45%" y="-45%" width="190%" height="190%">
      <feMorphology in="SourceAlpha" operator="dilate" radius="12" result="f"></feMorphology>
      <feTurbulence type="fractalNoise" baseFrequency="0.016" numOctaves="2" seed="302" result="n"></feTurbulence>
      <feDisplacementMap in="f" in2="n" scale="7" xChannelSelector="R" yChannelSelector="G" result="rr"></feDisplacementMap>
      <feFlood flood-color="#46c07a" result="c"></feFlood>
      <feComposite in="c" in2="rr" operator="in"></feComposite>
    </filter>
    <filter id="ln" x="-30%" y="-30%" width="160%" height="160%">
      <feTurbulence type="fractalNoise" baseFrequency="0.02" numOctaves="2" seed="702" result="n"></feTurbulence>
      <feDisplacementMap in="SourceGraphic" in2="n" scale="4.2" xChannelSelector="R" yChannelSelector="G"></feDisplacementMap>
    </filter>
  </defs>
  <g filter="url(#back)" transform="translate(6 7) rotate(-3 120 120)">
    <path d="M68 116 h104 l-12 64 q-2 8 -10 8 h-60 q-8 0 -10 -8 Z"></path><path d="M82 116 q4 -34 38 -34 q34 0 38 34" fill="none" stroke="#000" stroke-width="12"></path>
  </g>
  <g filter="url(#ln)" transform="rotate(-3 120 120)" fill="none" stroke="#15130e" stroke-width="5" stroke-linecap="round" stroke-linejoin="round">
    <path d="M68 116 h104 l-12 64 q-2 8 -10 8 h-60 q-8 0 -10 -8 Z"></path><path d="M82 116 q4 -34 38 -34 q34 0 38 34"></path><path d="M76 138 h88 M74 158 h92" stroke-width="3.4"></path><path d="M98 118 v68 M120 118 v70 M142 118 v68" stroke-width="3.4"></path>
  </g>
</svg>