<svg xmlns="http://www.w3.org/2000/svg" viewBox="0 0 240 240" width="240" height="240">
  <defs>
    <filter id="back" x="-45%" y="-45%" width="190%" height="190%">
      <feMorphology in="SourceAlpha" operator="dilate" radius="12" result="f"></feMorphology>
      <feTurbulence type="fractalNoise" baseFrequency="0.016" numOctaves="2" seed="309" result="n"></feTurbulence>
      <feDisplacementMap in="f" in2="n" scale="7" xChannelSelector="R" yChannelSelector="G" result="rr"></feDisplacementMap>
      <feFlood flood-color="#f1c43e" result="c"></feFlood>
      <feComposite in="c" in2="rr" operator="in"></feComposite>
    </filter>
    <filter id="ln" x="-30%" y="-30%" width="160%" height="160%">
      <feTurbulence type="fractalNoise" baseFrequency="0.02" numOctaves="2" seed="709" result="n"></feTurbulence>
      <feDisplacementMap in="SourceGraphic" in2="n" scale="4.2" xChannelSelector="R" yChannelSelector="G"></feDisplacementMap>
    </filter>
  </defs>
  <g filter="url(#back)" transform="translate(6 7) rotate(4 120 120)">
    <circle cx="120" cy="104" r="40"></circle><path d="M104 138 h32 v22 h-32 Z"></path>
  </g>
  <g filter="url(#ln)" transform="rotate(4 120 120)" fill="none" stroke="#15130e" stroke-width="5" stroke-linecap="round" stroke-linejoin="round">
    <circle cx="120" cy="104" r="40"></circle><path d="M104 140 h32 M106 150 h28 M110 160 h20"></path><path d="M110 104 q10 12 20 0" stroke-width="4"></path><path d="M120 52 v-14 M76 70 l-10 -10 M164 70 l10 -10 M58 110 h-14 M182 110 h14" stroke-width="4"></path>
  </g>
</svg>