<svg xmlns="http://www.w3.org/2000/svg" viewBox="0 0 240 240" width="240" height="240">
  <defs>
    <filter id="back" x="-45%" y="-45%" width="190%" height="190%">
      <feMorphology in="SourceAlpha" operator="dilate" radius="12" result="f"></feMorphology>
      <feTurbulence type="fractalNoise" baseFrequency="0.016" numOctaves="2" seed="313" result="n"></feTurbulence>
      <feDisplacementMap in="f" in2="n" scale="7" xChannelSelector="R" yChannelSelector="G" result="rr"></feDisplacementMap>
      <feFlood flood-color="#9d7bef" result="c"></feFlood>
      <feComposite in="c" in2="rr" operator="in"></feComposite>
    </filter>
    <filter id="ln" x="-30%" y="-30%" width="160%" height="160%">
      <feTurbulence type="fractalNoise" baseFrequency="0.02" numOctaves="2" seed="713" result="n"></feTurbulence>
      <feDisplacementMap in="SourceGraphic" in2="n" scale="4.2" xChannelSelector="R" yChannelSelector="G"></feDisplacementMap>
    </filter>
  </defs>
  <g filter="url(#back)" transform="translate(6 7) rotate(4 120 120)">
    <circle cx="120" cy="118" r="42"></circle><path d="M120 56 v-14 M120 180 v14 M58 118 h-14 M182 118 h14 M77 75 l-12 -12 M163 75 l12 -12 M77 161 l-12 12 M163 161 l12 12 M98 60 l-6 -14 M142 60 l6 -14 M98 176 l-6 14 M142 176 l6 14" fill="none" stroke="#000" stroke-width="11" stroke-linecap="round"></path>
  </g>
  <g filter="url(#ln)" transform="rotate(4 120 120)" fill="none" stroke="#15130e" stroke-width="5" stroke-linecap="round" stroke-linejoin="round">
    <circle cx="120" cy="118" r="42"></circle><path d="M120 56 v-14 M120 180 v14 M58 118 h-14 M182 118 h14 M77 75 l-12 -12 M163 75 l12 -12 M77 161 l-12 12 M163 161 l12 12 M98 60 l-6 -14 M142 60 l6 -14 M98 176 l-6 14 M142 176 l6 14"></path>
  </g>
</svg>