<svg xmlns="http://www.w3.org/2000/svg" viewBox="0 0 240 240" width="240" height="240">
  <defs>
    <filter id="back" x="-45%" y="-45%" width="190%" height="190%">
      <feMorphology in="SourceAlpha" operator="dilate" radius="12" result="f"></feMorphology>
      <feTurbulence type="fractalNoise" baseFrequency="0.016" numOctaves="2" seed="315" result="n"></feTurbulence>
      <feDisplacementMap in="f" in2="n" scale="7" xChannelSelector="R" yChannelSelector="G" result="rr"></feDisplacementMap>
      <feFlood flood-color="#ef5a44" result="c"></feFlood>
      <feComposite in="c" in2="rr" operator="in"></feComposite>
    </filter>
    <filter id="ln" x="-30%" y="-30%" width="160%" height="160%">
      <feTurbulence type="fractalNoise" baseFrequency="0.02" numOctaves="2" seed="715" result="n"></feTurbulence>
      <feDisplacementMap in="SourceGraphic" in2="n" scale="4.2" xChannelSelector="R" yChannelSelector="G"></feDisplacementMap>
    </filter>
  </defs>
  <g filter="url(#back)" transform="translate(6 7) rotate(4 120 120)">
    <path d="M80 150 q-4 -70 40 -70 q44 0 40 70 Z"></path><path d="M74 150 h92 v16 q0 6 -6 6 h-80 q-6 0 -6 -6 Z"></path><circle cx="120" cy="72" r="12"></circle>
  </g>
  <g filter="url(#ln)" transform="rotate(4 120 120)" fill="none" stroke="#15130e" stroke-width="5" stroke-linecap="round" stroke-linejoin="round">
    <path d="M80 150 q-4 -70 40 -70 q44 0 40 70 Z"></path><path d="M74 150 h92 v16 q0 6 -6 6 h-80 q-6 0 -6 -6 Z"></path><circle cx="120" cy="72" r="12"></circle><path d="M100 100 v44 M120 92 v54 M140 100 v44" stroke-width="3.4"></path>
  </g>
</svg>