<svg xmlns="http://www.w3.org/2000/svg" viewBox="0 0 240 240" width="240" height="240">
  <defs>
    <filter id="back" x="-45%" y="-45%" width="190%" height="190%">
      <feMorphology in="SourceAlpha" operator="dilate" radius="12" result="f"></feMorphology>
      <feTurbulence type="fractalNoise" baseFrequency="0.016" numOctaves="2" seed="605" result="n"></feTurbulence>
      <feDisplacementMap in="f" in2="n" scale="7" xChannelSelector="R" yChannelSelector="G" result="rr"></feDisplacementMap>
      <feFlood flood-color="#f1c43e" result="c"></feFlood>
      <feComposite in="c" in2="rr" operator="in"></feComposite>
    </filter>
    <filter id="ln" x="-30%" y="-30%" width="160%" height="160%">
      <feTurbulence type="fractalNoise" baseFrequency="0.02" numOctaves="2" seed="1005" result="n"></feTurbulence>
      <feDisplacementMap in="SourceGraphic" in2="n" scale="4.2" xChannelSelector="R" yChannelSelector="G"></feDisplacementMap>
    </filter>
  </defs>
  <g filter="url(#back)" transform="translate(6 7) rotate(-4 120 120)">
    <path d="M84 70 q36 -10 72 0 l-6 108 q-30 8 -60 0 Z"></path>
  </g>
  <g filter="url(#ln)" transform="rotate(-4 120 120)" fill="none" stroke="#15130e" stroke-width="5" stroke-linecap="round" stroke-linejoin="round">
    <path d="M84 70 q36 -10 72 0 l-6 108 q-30 8 -60 0 Z"></path><path d="M100 74 v100 M120 72 v104 M140 74 v100" stroke-width="3.4"></path><path d="M114 70 q6 -10 12 0"></path><path d="M86 168 q34 6 68 0" stroke-width="3.4"></path>
  </g>
</svg>