<svg xmlns="http://www.w3.org/2000/svg" viewBox="0 0 240 240" width="240" height="240">
  <defs>
    <filter id="back" x="-45%" y="-45%" width="190%" height="190%">
      <feMorphology in="SourceAlpha" operator="dilate" radius="12" result="f"></feMorphology>
      <feTurbulence type="fractalNoise" baseFrequency="0.016" numOctaves="2" seed="607" result="n"></feTurbulence>
      <feDisplacementMap in="f" in2="n" scale="7" xChannelSelector="R" yChannelSelector="G" result="rr"></feDisplacementMap>
      <feFlood flood-color="#3f86ee" result="c"></feFlood>
      <feComposite in="c" in2="rr" operator="in"></feComposite>
    </filter>
    <filter id="ln" x="-30%" y="-30%" width="160%" height="160%">
      <feTurbulence type="fractalNoise" baseFrequency="0.02" numOctaves="2" seed="1007" result="n"></feTurbulence>
      <feDisplacementMap in="SourceGraphic" in2="n" scale="4.2" xChannelSelector="R" yChannelSelector="G"></feDisplacementMap>
    </filter>
  </defs>
  <g filter="url(#back)" transform="translate(6 7) rotate(4 120 120)">
    <path d="M50 128 q44 -22 90 -6 q26 8 50 0 v52 h-140 Z"></path><circle cx="150" cy="106" r="18"></circle><rect x="146" y="120" width="8" height="20"></rect>
  </g>
  <g filter="url(#ln)" transform="rotate(4 120 120)" fill="none" stroke="#15130e" stroke-width="5" stroke-linecap="round" stroke-linejoin="round">
    <path d="M50 128 q44 -22 90 -6 q26 8 50 0"></path><path d="M50 130 v50 h140 v-52"></path><path d="M50 150 h140 M50 166 h140" stroke-width="3.4"></path><circle cx="150" cy="106" r="18"></circle><path d="M150 124 v18"></path>
  </g>
</svg>