<svg xmlns="http://www.w3.org/2000/svg" viewBox="0 0 240 240" width="240" height="240">
  <defs>
    <filter id="back" x="-45%" y="-45%" width="190%" height="190%">
      <feMorphology in="SourceAlpha" operator="dilate" radius="12" result="f"></feMorphology>
      <feTurbulence type="fractalNoise" baseFrequency="0.016" numOctaves="2" seed="611" result="n"></feTurbulence>
      <feDisplacementMap in="f" in2="n" scale="7" xChannelSelector="R" yChannelSelector="G" result="rr"></feDisplacementMap>
      <feFlood flood-color="#ef5a44" result="c"></feFlood>
      <feComposite in="c" in2="rr" operator="in"></feComposite>
    </filter>
    <filter id="ln" x="-30%" y="-30%" width="160%" height="160%">
      <feTurbulence type="fractalNoise" baseFrequency="0.02" numOctaves="2" seed="1011" result="n"></feTurbulence>
      <feDisplacementMap in="SourceGraphic" in2="n" scale="4.2" xChannelSelector="R" yChannelSelector="G"></feDisplacementMap>
    </filter>
  </defs>
  <g filter="url(#back)" transform="translate(6 7) rotate(4 120 120)">
    <path d="M64 176 q-10 -28 22 -36 q44 -10 24 -42 q-12 -20 18 -30 q22 -6 38 8" fill="none" stroke="#000" stroke-width="28" stroke-linecap="round"></path><circle cx="158" cy="76" r="16"></circle>
  </g>
  <g filter="url(#ln)" transform="rotate(4 120 120)" fill="none" stroke="#15130e" stroke-width="5" stroke-linecap="round" stroke-linejoin="round">
    <path d="M64 176 q-10 -28 22 -36 q44 -10 24 -42 q-12 -20 18 -30 q22 -6 38 8"></path><circle cx="158" cy="76" r="16"></circle><circle cx="156" cy="72" r="2.6" fill="#15130e"></circle><path d="M172 78 l16 -4 M172 82 l16 4" stroke-width="3"></path>
  </g>
</svg>