<svg xmlns="http://www.w3.org/2000/svg" viewBox="0 0 240 240" width="240" height="240">
  <defs>
    <filter id="back" x="-45%" y="-45%" width="190%" height="190%">
      <feMorphology in="SourceAlpha" operator="dilate" radius="12" result="f"></feMorphology>
      <feTurbulence type="fractalNoise" baseFrequency="0.016" numOctaves="2" seed="614" result="n"></feTurbulence>
      <feDisplacementMap in="f" in2="n" scale="7" xChannelSelector="R" yChannelSelector="G" result="rr"></feDisplacementMap>
      <feFlood flood-color="#f1c43e" result="c"></feFlood>
      <feComposite in="c" in2="rr" operator="in"></feComposite>
    </filter>
    <filter id="ln" x="-30%" y="-30%" width="160%" height="160%">
      <feTurbulence type="fractalNoise" baseFrequency="0.02" numOctaves="2" seed="1014" result="n"></feTurbulence>
      <feDisplacementMap in="SourceGraphic" in2="n" scale="4.2" xChannelSelector="R" yChannelSelector="G"></feDisplacementMap>
    </filter>
  </defs>
  <g filter="url(#back)" transform="translate(6 7) rotate(-4 120 120)">
    <circle cx="116" cy="126" r="46"></circle><path d="M120 82 q24 -16 38 -2 q-12 18 -38 8 Z"></path>
  </g>
  <g filter="url(#ln)" transform="rotate(-4 120 120)" fill="none" stroke="#15130e" stroke-width="5" stroke-linecap="round" stroke-linejoin="round">
    <circle cx="116" cy="126" r="46"></circle><path d="M120 82 q24 -16 38 -2 q-12 18 -38 8 Z"></path><path d="M116 84 q-2 -8 2 -12"></path><circle cx="98" cy="112" r="2.6" fill="#15130e"></circle><circle cx="128" cy="104" r="2.6" fill="#15130e"></circle><circle cx="92" cy="140" r="2.6" fill="#15130e"></circle><path d="M86 108 q10 -14 26 -14" stroke-width="3.4"></path>
  </g>
</svg>