<svg xmlns="http://www.w3.org/2000/svg" viewBox="0 0 240 240" width="240" height="240">
  <defs>
    <filter id="back" x="-45%" y="-45%" width="190%" height="190%">
      <feMorphology in="SourceAlpha" operator="dilate" radius="12" result="f"></feMorphology>
      <feTurbulence type="fractalNoise" baseFrequency="0.016" numOctaves="2" seed="201" result="n"></feTurbulence>
      <feDisplacementMap in="f" in2="n" scale="7" xChannelSelector="R" yChannelSelector="G" result="rr"></feDisplacementMap>
      <feFlood flood-color="#f1c43e" result="c"></feFlood>
      <feComposite in="c" in2="rr" operator="in"></feComposite>
    </filter>
    <filter id="ln" x="-30%" y="-30%" width="160%" height="160%">
      <feTurbulence type="fractalNoise" baseFrequency="0.02" numOctaves="2" seed="202" result="n"></feTurbulence>
      <feDisplacementMap in="SourceGraphic" in2="n" scale="4.2" xChannelSelector="R" yChannelSelector="G"></feDisplacementMap>
    </filter>
  </defs>
  <g filter="url(#back)" transform="translate(6 7) rotate(-3 120 120)">
    <ellipse cx="120" cy="144" rx="54" ry="40"></ellipse><circle cx="100" cy="100" r="17"></circle><circle cx="140" cy="100" r="17"></circle>
  </g>
  <g filter="url(#ln)" transform="rotate(-3 120 120)" fill="none" stroke="#15130e" stroke-width="5" stroke-linecap="round" stroke-linejoin="round">
    <ellipse cx="120" cy="144" rx="54" ry="38"></ellipse><circle cx="100" cy="100" r="17"></circle><circle cx="140" cy="100" r="17"></circle><circle cx="100" cy="100" r="5" fill="#15130e"></circle><circle cx="140" cy="100" r="5" fill="#15130e"></circle><path d="M84 142 q36 24 72 0"></path><path d="M86 176 q-8 10 -18 8 M154 176 q8 10 18 8" stroke-width="4"></path><circle cx="108" cy="152" r="4" fill="#15130e"></circle><circle cx="134" cy="160" r="4" fill="#15130e"></circle>
  </g>
</svg>