<svg xmlns="http://www.w3.org/2000/svg" viewBox="0 0 240 240" width="240" height="240">
  <defs>
    <filter id="back" x="-45%" y="-45%" width="190%" height="190%">
      <feMorphology in="SourceAlpha" operator="dilate" radius="12" result="f"></feMorphology>
      <feTurbulence type="fractalNoise" baseFrequency="0.016" numOctaves="2" seed="620" result="n"></feTurbulence>
      <feDisplacementMap in="f" in2="n" scale="7" xChannelSelector="R" yChannelSelector="G" result="rr"></feDisplacementMap>
      <feFlood flood-color="#3f86ee" result="c"></feFlood>
      <feComposite in="c" in2="rr" operator="in"></feComposite>
    </filter>
    <filter id="ln" x="-30%" y="-30%" width="160%" height="160%">
      <feTurbulence type="fractalNoise" baseFrequency="0.02" numOctaves="2" seed="1020" result="n"></feTurbulence>
      <feDisplacementMap in="SourceGraphic" in2="n" scale="4.2" xChannelSelector="R" yChannelSelector="G"></feDisplacementMap>
    </filter>
  </defs>
  <g filter="url(#back)" transform="translate(6 7) rotate(-3 120 120)">
    <path d="M84 120 h72 l-10 60 q-1 6 -8 6 h-36 q-7 0 -8 -6 Z"></path><path d="M78 110 h84 v14 h-84 Z"></path>
  </g>
  <g filter="url(#ln)" transform="rotate(-3 120 120)" fill="none" stroke="#15130e" stroke-width="5" stroke-linecap="round" stroke-linejoin="round">
    <path d="M84 120 h72 l-10 60 q-1 6 -8 6 h-36 q-7 0 -8 -6 Z"></path><path d="M78 110 h84 v14 h-84 Z"></path><path d="M120 110 v-16"></path><path d="M120 100 q-14 -2 -18 -14 q14 -2 18 8 M120 98 q14 -2 18 -14 q-14 -2 -18 8" stroke-width="4"></path>
  </g>
</svg>