<svg xmlns="http://www.w3.org/2000/svg" viewBox="0 0 240 240" width="240" height="240">
  <defs>
    <filter id="back" x="-45%" y="-45%" width="190%" height="190%">
      <feMorphology in="SourceAlpha" operator="dilate" radius="12" result="f"></feMorphology>
      <feTurbulence type="fractalNoise" baseFrequency="0.016" numOctaves="2" seed="907" result="n"></feTurbulence>
      <feDisplacementMap in="f" in2="n" scale="7" xChannelSelector="R" yChannelSelector="G" result="rr"></feDisplacementMap>
      <feFlood flood-color="#3f86ee" result="c"></feFlood>
      <feComposite in="c" in2="rr" operator="in"></feComposite>
    </filter>
    <filter id="ln" x="-30%" y="-30%" width="160%" height="160%">
      <feTurbulence type="fractalNoise" baseFrequency="0.02" numOctaves="2" seed="1307" result="n"></feTurbulence>
      <feDisplacementMap in="SourceGraphic" in2="n" scale="4.2" xChannelSelector="R" yChannelSelector="G"></feDisplacementMap>
    </filter>
  </defs>
  <g filter="url(#back)" transform="translate(6 7) rotate(3 120 120)">
    <path d="M96 130 h48 v26 q0 20 -24 28 q-24 -8 -24 -28 Z"></path><rect x="114" y="60" width="12" height="72"></rect><path d="M104 60 h32 v-10 q0 -8 -8 -8 h-16 q-8 0 -8 8 Z"></path>
  </g>
  <g filter="url(#ln)" transform="rotate(3 120 120)" fill="none" stroke="#15130e" stroke-width="5" stroke-linecap="round" stroke-linejoin="round">
    <path d="M96 130 h48 v26 q0 20 -24 28 q-24 -8 -24 -28 Z"></path><path d="M120 132 v44" stroke-width="3.4"></path><path d="M114 60 v70 M126 60 v70"></path><path d="M104 60 h32 v-10 q0 -8 -8 -8 h-16 q-8 0 -8 8 Z"></path>
  </g>
</svg>