<svg xmlns="http://www.w3.org/2000/svg" viewBox="0 0 240 240" width="240" height="240">
  <defs>
    <filter id="back" x="-45%" y="-45%" width="190%" height="190%">
      <feMorphology in="SourceAlpha" operator="dilate" radius="12" result="f"></feMorphology>
      <feTurbulence type="fractalNoise" baseFrequency="0.016" numOctaves="2" seed="901" result="n"></feTurbulence>
      <feDisplacementMap in="f" in2="n" scale="7" xChannelSelector="R" yChannelSelector="G" result="rr"></feDisplacementMap>
      <feFlood flood-color="#9d7bef" result="c"></feFlood>
      <feComposite in="c" in2="rr" operator="in"></feComposite>
    </filter>
    <filter id="ln" x="-30%" y="-30%" width="160%" height="160%">
      <feTurbulence type="fractalNoise" baseFrequency="0.02" numOctaves="2" seed="1301" result="n"></feTurbulence>
      <feDisplacementMap in="SourceGraphic" in2="n" scale="4.2" xChannelSelector="R" yChannelSelector="G"></feDisplacementMap>
    </filter>
  </defs>
  <g filter="url(#back)" transform="translate(6 7) rotate(4 120 120)">
    <circle cx="118" cy="64" r="17"></circle><path d="M118 80 l-8 44 M110 96 l-22 8 M110 96 l24 -8 M110 124 l20 30 M110 124 l-20 26" fill="none" stroke="#000" stroke-width="15" stroke-linecap="round"></path>
  </g>
  <g filter="url(#ln)" transform="rotate(4 120 120)" fill="none" stroke="#15130e" stroke-width="5" stroke-linecap="round" stroke-linejoin="round">
    <circle cx="118" cy="64" r="17"></circle><circle cx="112" cy="62" r="2.4" fill="#15130e"></circle><circle cx="124" cy="62" r="2.4" fill="#15130e"></circle><path d="M118 80 l-8 44"></path><path d="M110 96 l-22 8 M110 96 l24 -8"></path><path d="M110 124 l20 30 M110 124 l-20 26"></path><path d="M62 84 h16 M58 100 h18 M62 116 h14" stroke-width="3"></path>
  </g>
</svg>