<svg xmlns="http://www.w3.org/2000/svg" viewBox="0 0 240 240" width="240" height="240">
  <defs>
    <filter id="back" x="-45%" y="-45%" width="190%" height="190%">
      <feMorphology in="SourceAlpha" operator="dilate" radius="12" result="f"></feMorphology>
      <feTurbulence type="fractalNoise" baseFrequency="0.016" numOctaves="2" seed="904" result="n"></feTurbulence>
      <feDisplacementMap in="f" in2="n" scale="7" xChannelSelector="R" yChannelSelector="G" result="rr"></feDisplacementMap>
      <feFlood flood-color="#46c07a" result="c"></feFlood>
      <feComposite in="c" in2="rr" operator="in"></feComposite>
    </filter>
    <filter id="ln" x="-30%" y="-30%" width="160%" height="160%">
      <feTurbulence type="fractalNoise" baseFrequency="0.02" numOctaves="2" seed="1304" result="n"></feTurbulence>
      <feDisplacementMap in="SourceGraphic" in2="n" scale="4.2" xChannelSelector="R" yChannelSelector="G"></feDisplacementMap>
    </filter>
  </defs>
  <g filter="url(#back)" transform="translate(6 7) rotate(-4 120 120)">
    <path d="M120 56 v128 M64 88 l112 64 M176 88 l-112 64" fill="none" stroke="#000" stroke-width="16" stroke-linecap="round"></path>
  </g>
  <g filter="url(#ln)" transform="rotate(-4 120 120)" fill="none" stroke="#15130e" stroke-width="5" stroke-linecap="round" stroke-linejoin="round">
    <path d="M120 56 v128 M64 88 l112 64 M176 88 l-112 64"></path><path d="M120 78 l-10 -10 M120 78 l10 -10 M120 162 l-10 10 M120 162 l10 10 M84 100 l-14 0 M84 100 l4 -14 M156 140 l14 0 M156 140 l-4 14 M156 100 l14 0 M156 100 l-4 -14 M84 140 l-14 0 M84 140 l4 14" stroke-width="3"></path>
  </g>
</svg>