<svg xmlns="http://www.w3.org/2000/svg" viewBox="0 0 240 240" width="240" height="240">
  <defs>
    <filter id="back" x="-45%" y="-45%" width="190%" height="190%">
      <feMorphology in="SourceAlpha" operator="dilate" radius="12" result="f"></feMorphology>
      <feTurbulence type="fractalNoise" baseFrequency="0.016" numOctaves="2" seed="916" result="n"></feTurbulence>
      <feDisplacementMap in="f" in2="n" scale="7" xChannelSelector="R" yChannelSelector="G" result="rr"></feDisplacementMap>
      <feFlood flood-color="#9d7bef" result="c"></feFlood>
      <feComposite in="c" in2="rr" operator="in"></feComposite>
    </filter>
    <filter id="ln" x="-30%" y="-30%" width="160%" height="160%">
      <feTurbulence type="fractalNoise" baseFrequency="0.02" numOctaves="2" seed="1316" result="n"></feTurbulence>
      <feDisplacementMap in="SourceGraphic" in2="n" scale="4.2" xChannelSelector="R" yChannelSelector="G"></feDisplacementMap>
    </filter>
  </defs>
  <g filter="url(#back)" transform="translate(6 7) rotate(-4 120 120)">
    <rect x="64" y="70" width="112" height="104" rx="6"></rect>
  </g>
  <g filter="url(#ln)" transform="rotate(-4 120 120)" fill="none" stroke="#15130e" stroke-width="5" stroke-linecap="round" stroke-linejoin="round">
    <rect x="64" y="70" width="112" height="104" rx="6"></rect><path d="M76 78 q-2 50 6 90 q10 -6 10 -90"></path><path d="M164 78 q2 50 -6 90 q-10 -6 -10 -90"></path><path d="M76 78 q12 10 22 0 q12 10 22 0 q12 10 22 0 q12 10 22 0" stroke-width="3.4"></path><path d="M120 130 l5 12 13 1 -10 9 3 13 -11 -7 -11 7 3 -13 -10 -9 13 -1 Z"></path>
  </g>
</svg>